<svg xmlns="http://www.w3.org/2000/svg" viewBox="0 0 45 45">
  <g fill="#fff" fill-rule="evenodd" stroke="#000" stroke-width="1.5" stroke-linecap="round" stroke-linejoin="round">
    <path d="M22.5 11.63V6"/>
    <path d="M20 8h5"/>
    <path d="M22.5 25c-2.21 0-4-1.79-4-4 0-1.38.69-2.58 1.75-3.31L18 14.5c-1.15-.4-2-.86-2-2 0-1.14.89-2 2-2 .8 0 1.52.43 1.86 1.06.34-.63 1.06-1.06 1.86-1.06 1.11 0 2 .86 2 2 0 1.14-.85 1.6-2 2l-2.25 3.19A3.98 3.98 0 0 1 26.5 21c0 2.21-1.79 4-4 4z"/>
    <path d="M12.5 37c5.5-5.5 14.5-5.5 20 0"/>
    <path d="M12.5 30h20"/>
    <path d="M12.5 37h20"/>
  </g>
</svg>
